<svg xmlns="http://www.w3.org/2000/svg" xmlns:xlink="http://www.w3.org/1999/xlink" viewBox="0 0 1081 3508">
  <defs>
    <style>
      .cls-1 {
        clip-path: url(#clip-Home-light_Phone);
      }

      .cls-2 {
        opacity: 0.05;
      }

      .cls-3 {
        fill: #333;
      }

      .cls-4 {
        fill: url(#linear-gradient-2);
      }

      .cls-5 {
        fill: url(#linear-gradient);
      }

      .cls-6 {
        filter: url(#Path_13);
      }
    </style>
    <linearGradient id="linear-gradient" x1="1" x2="0" y2="0.368" gradientUnits="objectBoundingBox">
      <stop offset="0" stop-color="#65bcff"/>
      <stop offset="1" stop-color="#f3b1ff"/>
    </linearGradient>
    <linearGradient id="linear-gradient-2" x1="0.5" x2="0.5" y2="0.38" gradientUnits="objectBoundingBox">
      <stop offset="0" stop-color="#fbfbfb"/>
      <stop offset="1" stop-color="#fff"/>
    </linearGradient>
    <filter id="Path_13" x="-1205.618" y="373.633" width="3503.235" height="3264.719" filterUnits="userSpaceOnUse">
      <feOffset dx="5" dy="-3" input="SourceAlpha"/>
      <feGaussianBlur stdDeviation="5" result="blur"/>
      <feFlood flood-opacity="0.161"/>
      <feComposite operator="in" in2="blur"/>
      <feComposite in="SourceGraphic"/>
    </filter>
    <clipPath id="clip-Home-light_Phone">
      <rect width="1081" height="3508"/>
    </clipPath>
  </defs>
  <g id="Home-light_Phone" data-name="Home-light – Phone" class="cls-1">
    <rect class="cls-5" width="1081" height="3508"/>
    <g id="Logo_rewised" data-name="Logo rewised" class="cls-2" transform="translate(-429 -59.245)">
      <path id="Path_3" data-name="Path 3" d="M1550.083,59.1,1412.829,196.355C1608.935,335.564,1737,564.322,1737,823.19c0,424.082-343.919,768-768,768s-768-343.919-768-768c0-258.868,128.065-487.625,324.171-626.835L387.917,59.1C157.595,234.481,9,511.532,9,823.19c0,530.248,429.752,960,960,960s960-429.751,960-960C1929,511.532,1780.405,234.481,1550.083,59.1Z" transform="translate(0)"/>
      <path id="Path_4" data-name="Path 4" d="M446.083,152.8h0C261.318,279.692,139.9,492.613,139.9,733.688c0,217.027,98.151,411.177,252.611,540.22L529.179,1137.24c-96-74.884-164.627-183.4-188.09-307.552H1347.036c-23.658,124.35-92.285,232.668-188.09,307.552l136.668,136.668c154.46-129.043,252.611-323.193,252.611-540.22,0-241.075-121.222-454-306.183-580.888H446.083Zm900.758,484.888H341.089C369.049,490.266,460.161,365.33,585.1,292.01L843.965,550.682,1102.833,292.01C1227.77,365.33,1318.882,490.266,1346.841,637.688Z" transform="translate(125.035 89.502)"/>
    </g>
    <g id="Logo_rewised-2" data-name="Logo rewised" transform="translate(-420)">
      <path id="Path_5" data-name="Path 5" class="cls-3" d="M268.064,59.1,244.991,82.173a129.1,129.1,0,1,1-149.22,0L72.7,59.1a161.381,161.381,0,1,0,195.366,0Z" transform="translate(789.619 -9.114)"/>
      <path id="Path_6" data-name="Path 6" class="cls-3" d="M191.371,152.8h0a118.353,118.353,0,0,0-9.006,188.464L205.34,318.29a85.9,85.9,0,0,1-31.619-51.7H342.826a86.113,86.113,0,0,1-31.619,51.7l22.975,22.975A118.353,118.353,0,0,0,325.176,152.8h-133.8Zm151.422,81.512H173.721A86.1,86.1,0,0,1,214.74,176.2l43.517,43.484L301.774,176.2A86.1,86.1,0,0,1,342.793,234.312Z" transform="translate(701.743 -72.017)"/>
    </g>
    <g class="cls-6" transform="matrix(1, 0, 0, 1, 0, 0)">
      <path id="Path_13-2" data-name="Path 13" class="cls-4" d="M1736.618,0c959.107,0,1736.618,724.116,1736.618,1617.359s-777.51,1617.359-1736.618,1617.359S0,2510.6,0,1617.359,777.51,0,1736.618,0Z" transform="translate(-1195.62 391.63)"/>
    </g>
  </g>
</svg>
