<?xml version="1.0" encoding="utf-8"?>
<!-- Generator: Adobe Illustrator 22.0.0, SVG Export Plug-In . SVG Version: 6.00 Build 0)  -->
<svg version="1.1" id="Layer_1" xmlns="http://www.w3.org/2000/svg" xmlns:xlink="http://www.w3.org/1999/xlink" x="0px" y="0px"
	 viewBox="0 0 1000 1000" style="enable-background:new 0 0 1000 1000;" xml:space="preserve">
<g>
	<path d="M797.2,59.1L727,129.3c100.3,71.2,165.8,188.2,165.8,320.6c0,216.9-175.9,392.8-392.8,392.8S107.2,666.8,107.2,449.9
		c0-132.4,65.5-249.4,165.8-320.6l-70.2-70.2C85,148.8,9,290.5,9,449.9c0,271.2,219.8,491,491,491s491-219.8,491-491
		C991,290.5,915,148.8,797.2,59.1z"/>
	<path d="M296.5,152.8L296.5,152.8C202,217.7,139.9,326.6,139.9,449.9c0,111,50.2,210.3,129.2,276.3l69.9-69.9
		c-49.1-38.3-84.2-93.8-96.2-157.3h514.5c-12.1,63.6-47.2,119-96.2,157.3l69.9,69.9c79-66,129.2-165.3,129.2-276.3
		c0-123.3-62-232.2-156.6-297.1l0,0l0,0l-196.8,0L296.5,152.8L296.5,152.8L296.5,152.8L296.5,152.8z M757.2,400.8H242.8
		c14.3-75.4,60.9-139.3,124.8-176.8L500,356.3L632.4,224C696.3,261.5,742.9,325.4,757.2,400.8z"/>
</g>
</svg>
