<svg xmlns="http://www.w3.org/2000/svg" viewBox="0 0 150 120">
  <defs>
    <style>
      .cls-1, .cls-3, .cls-6 {
        fill: none;
      }

      .cls-1, .cls-4 {
        stroke: #008fff;
        stroke-width: 8px;
      }

      .cls-2, .cls-4 {
        fill: #94d0ff;
      }

      .cls-5, .cls-7 {
        stroke: none;
      }

      .cls-7 {
        fill: #008fff;
      }
    </style>
  </defs>
  <g id="Photography" transform="translate(-1267.518 -794)">
    <g id="Rectangle_3" data-name="Rectangle 3" class="cls-1" transform="translate(1283.518 804)">
      <rect class="cls-5" width="23" height="14" rx="7"/>
      <rect class="cls-6" x="4" y="4" width="15" height="6" rx="3"/>
    </g>
    <g id="Path_11" data-name="Path 11" class="cls-2" transform="translate(1267.518 811)">
      <path class="cls-5" d="M 130 99 L 20 99 C 15.72624969482422 99 11.70829582214355 97.33570098876953 8.686295509338379 94.31370544433594 C 5.664295673370361 91.29170227050781 4 87.27375030517578 4 83 L 4 20 C 4 15.72624969482422 5.664295673370361 11.70829582214355 8.686295509338379 8.686295509338379 C 11.70829582214355 5.664295673370361 15.72624969482422 4 20 4 L 130 4 C 134.2737426757813 4 138.2917022705078 5.664295673370361 141.3137054443359 8.686295509338379 C 144.3357086181641 11.70829582214355 146 15.72624969482422 146 20 L 146 83 C 146 87.27375030517578 144.3357086181641 91.29170227050781 141.3137054443359 94.31370544433594 C 138.2917022705078 97.33570098876953 134.2737426757813 99 130 99 Z"/>
      <path class="cls-7" d="M 20 8 C 13.3831787109375 8 8 13.38318634033203 8 20 L 8 83 C 8 89.61681365966797 13.3831787109375 95 20 95 L 130 95 C 136.6168212890625 95 142 89.61681365966797 142 83 L 142 20 C 142 13.38318634033203 136.6168212890625 8 130 8 L 20 8 M 20 0 L 130 0 C 141.0456848144531 0 150 8.954315185546875 150 20 L 150 83 C 150 94.04568481445313 141.0456848144531 103 130 103 L 20 103 C 8.95428466796875 103 0 94.04568481445313 0 83 L 0 20 C 0 8.954315185546875 8.95428466796875 0 20 0 Z"/>
    </g>
    <g id="Path_10" data-name="Path 10" class="cls-3" transform="translate(1306.518 826)">
      <path class="cls-5" d="M36,0A36,36,0,1,1,0,36,36,36,0,0,1,36,0Z"/>
      <path class="cls-7" d="M 36 8 C 20.56074523925781 8 8 20.56074523925781 8 36 C 8 51.43925476074219 20.56074523925781 64 36 64 C 51.43925476074219 64 64 51.43925476074219 64 36 C 64 20.56074523925781 51.43925476074219 8 36 8 M 36 0 C 55.88223648071289 0 72 16.11774444580078 72 36 C 72 55.88223648071289 55.88223648071289 72 36 72 C 16.11774444580078 72 0 55.88223648071289 0 36 C 0 16.11774444580078 16.11774444580078 0 36 0 Z"/>
    </g>
    <g id="Rectangle_5" data-name="Rectangle 5" class="cls-1" transform="translate(1373.518 823.72)">
      <rect class="cls-5" width="23" height="14" rx="7"/>
      <rect class="cls-6" x="4" y="4" width="15" height="6" rx="3"/>
    </g>
    <g id="Rectangle_4" data-name="Rectangle 4" class="cls-4" transform="translate(1310.518 794)">
      <path class="cls-5" d="M20,0H44A20,20,0,0,1,64,20v4a0,0,0,0,1,0,0H0a0,0,0,0,1,0,0V20A20,20,0,0,1,20,0Z"/>
      <path class="cls-6" d="M16.8,4H47.2A12.8,12.8,0,0,1,60,16.8v0A3.2,3.2,0,0,1,56.8,20H7.2A3.2,3.2,0,0,1,4,16.8v0A12.8,12.8,0,0,1,16.8,4Z"/>
    </g>
    <g id="Path_12" data-name="Path 12" class="cls-3" transform="translate(1321.884 841.366)">
      <path class="cls-5" d="M20.634,0A20.634,20.634,0,1,1,0,20.634,20.634,20.634,0,0,1,20.634,0Z"/>
      <path class="cls-7" d="M 20.6336669921875 8 C 13.66744041442871 8 8 13.66744041442871 8 20.6336669921875 C 8 27.59989356994629 13.66744041442871 33.267333984375 20.6336669921875 33.267333984375 C 27.59989356994629 33.267333984375 33.267333984375 27.59989356994629 33.267333984375 20.6336669921875 C 33.267333984375 13.66744041442871 27.59989356994629 8 20.6336669921875 8 M 20.6336669921875 0 C 32.02931976318359 0 41.267333984375 9.237998962402344 41.267333984375 20.6336669921875 C 41.267333984375 32.02931976318359 32.02931976318359 41.267333984375 20.6336669921875 41.267333984375 C 9.237998962402344 41.267333984375 0 32.02931976318359 0 20.6336669921875 C 0 9.237998962402344 9.237998962402344 0 20.6336669921875 0 Z"/>
    </g>
  </g>
</svg>
