<svg xmlns="http://www.w3.org/2000/svg" viewBox="0 0 150 120">
  <defs>
    <style>
      .cls-1 {
        fill: #008fff;
      }

      .cls-2 {
        fill: #94d0ff;
      }
    </style>
  </defs>
  <g id="Projects" transform="translate(-919.516 -794)">
    <path id="Rectangle_7" data-name="Rectangle 7" class="cls-1" d="M5,0H145a5,5,0,0,1,5,5v5a0,0,0,0,1,0,0H0a0,0,0,0,1,0,0V5A5,5,0,0,1,5,0Z" transform="translate(919.516 904)"/>
    <path id="Rectangle_8" data-name="Rectangle 8" class="cls-1" d="M0,0H150a0,0,0,0,1,0,0V5a5,5,0,0,1-5,5H5A5,5,0,0,1,0,5V0A0,0,0,0,1,0,0Z" transform="translate(919.516 794)"/>
    <path id="Rectangle_9" data-name="Rectangle 9" class="cls-2" d="M0,0H91a5,5,0,0,1,5,5V85a5,5,0,0,1-5,5H0a0,0,0,0,1,0,0V0A0,0,0,0,1,0,0Z" transform="translate(919.516 809)"/>
    <path id="Rectangle_10" data-name="Rectangle 10" class="cls-2" d="M5,0H49a0,0,0,0,1,0,0V90a0,0,0,0,1,0,0H5a5,5,0,0,1-5-5V5A5,5,0,0,1,5,0Z" transform="translate(1020.516 809)"/>
  </g>
</svg>
